#N canvas 0 0 450 300 10;
#X obj 75 210 t f f;
#X obj 75 164 int;
#X text 85 225 high;
#X text 111 248 low;
#X obj 75 141 inlet;
#X obj 75 305 outlet;
#X obj 102 284 outlet;
#X obj 75 263 int;
#X obj 121 141 inlet;
#X obj 75 240 / 128;
#X obj 102 263 % 128;
#X obj 75 187 moses 16512;
#X connect 0 0 9 0;
#X connect 0 1 10 0;
#X connect 1 0 11 0;
#X connect 4 0 1 0;
#X connect 7 0 5 0;
#X connect 8 0 1 1;
#X connect 9 0 7 0;
#X connect 10 0 6 0;
#X connect 11 0 0 0;
