#N canvas 0 59 995 649 10;
#X msg -59 234 close;
#X obj 103 147 tgl 30 0 empty empty empty 17 7 0 10 -262144 -1 -1 0
1;
#X obj -67 151 pack f f f f f f f f f;
#X msg -67 103 255;
#X obj -66 81 t b b b b b;
#X obj 45 130 b_p;
#X obj -51 130 b_p;
#X obj -19 130 b_p;
#X obj 13 130 b_p;
#X obj -59 177 sel 0 1;
#X obj -40 198 int;
#X obj 137 147 hradio 30 1 0 2 empty empty empty 0 -8 0 10 -262144
-1 -1 0;
#X obj -9 177 loadbang;
#X msg -9 197 0;
#X obj 13 64 inlet;
#X obj 49 64 inlet;
#X obj 85 64 inlet;
#X obj 121 64 inlet;
#X msg -21 234 devicename /dev/ttyUSB\$1;
#X obj -67 259 comport 9600;
#X floatatom 106 105 6 0 0 0 - - -;
#X floatatom 158 105 6 0 0 0 - - -;
#X floatatom 106 126 6 0 0 0 - - -;
#X floatatom 158 126 6 0 0 0 - - -;
#X connect 0 0 19 0;
#X connect 1 0 9 0;
#X connect 2 0 19 0;
#X connect 3 0 2 0;
#X connect 4 0 3 0;
#X connect 4 1 6 0;
#X connect 4 2 7 0;
#X connect 4 3 8 0;
#X connect 4 4 5 0;
#X connect 5 0 2 7;
#X connect 5 1 2 8;
#X connect 6 0 2 1;
#X connect 6 1 2 2;
#X connect 7 0 2 3;
#X connect 7 1 2 4;
#X connect 8 0 2 5;
#X connect 8 1 2 6;
#X connect 9 0 0 0;
#X connect 9 1 10 0;
#X connect 10 0 18 0;
#X connect 11 0 10 1;
#X connect 12 0 13 0;
#X connect 13 0 10 1;
#X connect 14 0 6 1;
#X connect 14 0 20 0;
#X connect 15 0 4 0;
#X connect 15 0 7 1;
#X connect 15 0 22 0;
#X connect 16 0 8 1;
#X connect 16 0 4 0;
#X connect 16 0 21 0;
#X connect 17 0 5 1;
#X connect 17 0 4 0;
#X connect 17 0 23 0;
#X connect 18 0 19 0;
#X coords 0 -1 1 1 100 80 2 100 100;
