#N canvas 239 31 1089 648 10;
#X obj -584 -128 vsl 15 128 0 3000 0 0 empty empty empty 0 -9 0 10
-262144 -1 -1 0 1;
#X floatatom -600 -149 10 0 0 0 - - -;
#X obj -567 -128 vsl 15 128 0 1000 0 0 empty empty empty 0 -9 0 10
-262144 -1 -1 0 1;
#X obj -519 -128 vsl 15 128 0 65535 0 0 empty empty empty 0 -9 0 10
-262144 -1 -1 0 1;
#X floatatom -535 -149 10 0 0 0 - - -;
#X obj -502 -128 vsl 15 128 0 1000 0 0 empty empty empty 0 -9 0 10
-262144 -1 -1 0 1;
#X obj -451 -128 vsl 15 128 0 65535 0 0 empty empty empty 0 -9 0 10
-262144 -1 -1 0 1;
#X floatatom -467 -149 10 0 0 0 - - -;
#X obj -434 -128 vsl 15 128 0 1000 0 0 empty empty empty 0 -9 0 10
-262144 -1 -1 0 1;
#X obj -386 -128 vsl 15 128 0 65535 0 0 empty empty empty 0 -9 0 10
-262144 -1 -1 0 1;
#X floatatom -402 -149 10 0 0 0 - - -;
#X obj -369 -128 vsl 15 128 0 1000 0 0 empty empty empty 0 -9 0 10
-262144 -1 -1 0 1;
#X obj 48 337 brnbng_coms;
#X text -330 -124 16512;
#X obj 513 56 hsl 80 15 0 1 0 0 empty empty empty -2 -8 0 10 -262144
-1 -1 3000 1;
#X obj 520 75 * -1;
#X obj 551 76 + 1;
#X obj 600 89 *;
#X obj 506 96 t b;
#X obj 475 96 *;
#X obj 473 61 int;
#X obj 598 59 int;
#X obj 613 -249 vsl 15 300 0 33024 0 0 empty empty empty 0 -9 0 10
-262144 -1 -1 500 1;
#X obj 472 -254 vsl 15 300 0 33024 0 0 empty empty empty 0 -9 0 10
-262144 -1 -1 4900 1;
#X obj 693 55 hsl 80 15 0 1 0 0 empty empty empty -2 -8 0 10 -262144
-1 -1 4500 1;
#X obj 700 74 * -1;
#X obj 731 75 + 1;
#X obj 780 88 *;
#X obj 686 95 t b;
#X obj 655 95 *;
#X obj 653 60 int;
#X obj 778 58 int;
#X obj 793 -250 vsl 15 300 0 33024 0 0 empty empty empty 0 -9 0 10
-262144 -1 -1 2100 1;
#X obj 654 -290 vsl 15 300 0 33024 0 0 empty empty empty 0 -9 0 10
-262144 -1 -1 800 1;
#X obj 527 -115 vsl 15 128 0 3000 0 0 empty empty empty 0 -9 0 10 -262144
-1 -1 0 1;
#X obj 731 -125 vsl 15 128 0 3000 0 0 empty empty empty 0 -9 0 10 -262144
-1 -1 0 1;
#X obj -277 -81 *;
#X floatatom -268 -48 5 0 0 0 - - -;
#X msg -278 -133 16512 2;
#X floatatom -233 -56 10 0 0 0 - - -;
#X text -551 23 position x-y direction rad;
#X obj -163 -117 line;
#X msg -163 -139 500 \, 1000 10000;
#X floatatom -163 -96 5 0 0 0 - - -;
#N canvas 0 0 450 300 (subpatch) 0;
#X array left_eye 16 float 3;
#A 0 6 6 76 106 399 972 585 630 794 2454 878 822 530 249 11 0;
#X coords 0 200 15 5000 200 140 1;
#X restore -584 78 graph;
#X obj 21 204 tabread left_eye;
#X obj 21 65 tgl 15 0 empty empty empty 17 7 0 10 -262144 -1 -1 1 1
;
#X obj 21 115 int;
#X obj 50 115 + 1;
#X obj 21 137 % 16;
#X floatatom 21 159 5 0 0 0 - - -;
#X floatatom -7 236 5 0 0 0 - - -;
#N canvas 0 0 450 300 (subpatch) 0;
#X array right_eye 16 float 3;
#A 0 6 6 76 106 399 486 1170 630 794 818 2634 822 530 249 11 0;
#X coords 0 200 15 5000 200 140 1;
#X restore -561 254 graph;
#X obj 36 184 tabread right_eye;
#X floatatom 64 296 7 0 0 0 - - -;
#X floatatom 217 247 5 0 0 0 - - -;
#X obj 315 187 hradio 10 1 0 15 empty empty empty 0 -8 0 10 -262144
-1 -1 14;
#X obj 203 298 tabwrite right_eye;
#X obj 203 270 int;
#X obj 250 275 t b f;
#X floatatom 340 246 5 0 0 0 - - -;
#X obj 326 269 int;
#X obj 373 274 t b f;
#X obj 326 297 tabwrite left_eye;
#X floatatom 217 77 5 0 0 0 - - -;
#X msg -30 103 0;
#X obj 32 250 line;
#X obj 32 272 speedlim 50;
#X obj 111 249 line;
#X obj 111 271 speedlim 50;
#X obj 264 135 *;
#X obj 280 112 hradio 10 1 0 4 empty empty empty 0 -8 0 10 -262144
-1 -1 1;
#X obj 182 137 *;
#X obj 198 114 hradio 10 1 0 4 empty empty empty 0 -8 0 10 -262144
-1 -1 1;
#X obj 189 176 +;
#X floatatom 205 157 5 0 0 0 - - -;
#X obj 270 170 +;
#X floatatom 286 151 5 0 0 0 - - -;
#X obj -41 24 hradio 10 1 0 15 empty empty empty 0 -8 0 10 -262144
-1 -1 1;
#X obj -205 147 tgl 15 0 empty empty empty 17 7 0 10 -262144 -1 -1
1 1;
#X obj -205 170 metro 1000;
#X msg -211 213 1600;
#X obj 21 88 metro 1000;
#X msg 32 228 \$1 1000;
#X msg 111 227 \$1 1000;
#X floatatom -161 137 5 0 0 0 - - -;
#X connect 0 0 1 0;
#X connect 2 0 0 0;
#X connect 3 0 4 0;
#X connect 5 0 3 0;
#X connect 6 0 7 0;
#X connect 8 0 6 0;
#X connect 9 0 10 0;
#X connect 11 0 9 0;
#X connect 14 0 15 0;
#X connect 14 0 19 1;
#X connect 14 0 18 0;
#X connect 15 0 16 0;
#X connect 16 0 17 1;
#X connect 18 0 21 0;
#X connect 18 0 20 0;
#X connect 20 0 19 0;
#X connect 21 0 17 0;
#X connect 22 0 21 0;
#X connect 23 0 20 0;
#X connect 24 0 25 0;
#X connect 24 0 29 1;
#X connect 24 0 28 0;
#X connect 25 0 26 0;
#X connect 26 0 27 1;
#X connect 28 0 31 0;
#X connect 28 0 30 0;
#X connect 30 0 29 0;
#X connect 31 0 27 0;
#X connect 32 0 31 0;
#X connect 33 0 30 0;
#X connect 34 0 20 0;
#X connect 34 0 21 0;
#X connect 35 0 30 0;
#X connect 35 0 31 0;
#X connect 36 0 37 0;
#X connect 36 0 39 0;
#X connect 38 0 36 0;
#X connect 41 0 43 0;
#X connect 42 0 41 0;
#X connect 45 0 51 0;
#X connect 45 0 83 0;
#X connect 46 0 82 0;
#X connect 47 0 48 0;
#X connect 47 0 49 0;
#X connect 48 0 47 1;
#X connect 49 0 50 0;
#X connect 50 0 45 0;
#X connect 50 0 53 0;
#X connect 53 0 84 0;
#X connect 54 0 12 1;
#X connect 54 0 12 3;
#X connect 55 0 58 1;
#X connect 56 0 59 0;
#X connect 56 0 62 0;
#X connect 58 0 57 0;
#X connect 59 0 58 0;
#X connect 59 1 57 1;
#X connect 60 0 61 1;
#X connect 61 0 63 0;
#X connect 62 0 61 0;
#X connect 62 1 63 1;
#X connect 64 0 70 0;
#X connect 64 0 72 0;
#X connect 65 0 47 0;
#X connect 66 0 67 0;
#X connect 67 0 12 0;
#X connect 68 0 69 0;
#X connect 69 0 12 2;
#X connect 70 0 76 0;
#X connect 71 0 70 1;
#X connect 72 0 74 0;
#X connect 73 0 72 1;
#X connect 74 0 55 0;
#X connect 75 0 74 1;
#X connect 76 0 60 0;
#X connect 77 0 76 1;
#X connect 78 0 50 0;
#X connect 79 0 80 0;
#X connect 80 0 81 0;
#X connect 81 0 12 0;
#X connect 81 0 12 2;
#X connect 82 0 47 0;
#X connect 83 0 66 0;
#X connect 84 0 68 0;
#X connect 85 0 80 1;
