#N canvas 600 366 1069 625 10;
#X declare -lib mrpeach;
#X obj -338 153 dac~ 1 2 3 4;
#X obj -338 76 catch~ player0L;
#X obj -316 95 catch~ player0R;
#X obj -292 114 catch~ player1L;
#X obj -269 133 catch~ player1R;
#X obj 103 -93 t b;
#X obj 113 -28 pack f f;
#X obj 158 -49 * 20;
#X obj 131 -70 t f f;
#X msg 70 -6 clear;
#X obj 131 -93 int;
#X obj 130 -131 bng 15 250 50 0 empty empty empty 17 7 0 10 -262144
-1 -1;
#X obj 159 -91 + 1;
#X msg 161 -131 0;
#X msg 113 -6 obj 5 \$2 osc~ \$1;
#X obj 113 17 send pd-brnbng_osc.pd;
#X obj -340 -115 brnbng_osc;
#X obj -180 -61 unpack f f f f;
#X text -74 -62 x y o p;
#X obj -130 -29 spigot;
#X obj -180 -29 spigot;
#X obj -66 -29 spigot;
#X obj -281 298 r raw;
#X msg -345 419 clear;
#N canvas 0 0 450 300 mute 0;
#X obj 193 91 inlet;
#X obj 125 230 outlet;
#X obj 125 133 delay 1000;
#X msg 125 112 bang;
#X obj 108 159 t b;
#X obj 193 112 t b;
#X obj 156 159 delay 500;
#X obj 125 209 spigot;
#X msg 108 182 1;
#X msg 156 180 0;
#X obj 125 91 loadbang;
#X msg 193 133 0;
#X connect 0 0 5 0;
#X connect 2 0 4 0;
#X connect 2 0 6 0;
#X connect 3 0 2 0;
#X connect 4 0 3 0;
#X connect 4 0 8 0;
#X connect 5 0 11 0;
#X connect 6 0 9 0;
#X connect 7 0 1 0;
#X connect 8 0 7 1;
#X connect 9 0 7 0;
#X connect 10 0 3 0;
#X connect 11 0 7 1;
#X restore -345 379 pd mute;
#X obj -345 399 t b;
#X obj -340 -94 brnbng_bag;
#X obj -281 459 s pd-brnbng_bag.pd;
#X obj -281 319 route -1;
#X obj -281 379 pack f f;
#X obj -236 360 * 20;
#X obj -281 340 unpack f f f;
#X msg -304 419 obj 10 \$2 brnbng_point \$1 0;
#X msg -281 399 obj 113 \$2 brnbng_point \$1 1;
#X obj -46 339 brnbng_point 20 1;
#X connect 1 0 0 0;
#X connect 2 0 0 1;
#X connect 3 0 0 2;
#X connect 4 0 0 3;
#X connect 5 0 10 0;
#X connect 6 0 14 0;
#X connect 7 0 6 1;
#X connect 8 0 6 0;
#X connect 8 1 7 0;
#X connect 9 0 15 0;
#X connect 10 0 8 0;
#X connect 10 0 12 0;
#X connect 11 0 10 0;
#X connect 12 0 10 1;
#X connect 13 0 10 0;
#X connect 14 0 15 0;
#X connect 17 0 20 0;
#X connect 17 1 19 0;
#X connect 17 2 21 0;
#X connect 17 3 20 1;
#X connect 17 3 19 1;
#X connect 17 3 21 1;
#X connect 22 0 24 0;
#X connect 22 0 28 0;
#X connect 23 0 27 0;
#X connect 24 0 25 0;
#X connect 25 0 23 0;
#X connect 28 0 31 0;
#X connect 29 0 33 0;
#X connect 29 0 32 0;
#X connect 30 0 29 1;
#X connect 31 0 29 0;
#X connect 31 1 30 0;
#X connect 32 0 27 0;
#X connect 33 0 27 0;
