#N canvas 0 67 264 294 10;
#X declare -lib mrpeach;
#X obj -232 141 dac~ 1 2 3 4;
#X obj -232 64 catch~ player0L;
#X obj -210 83 catch~ player0R;
#X obj -186 102 catch~ player1L;
#X obj -163 121 catch~ player1R;
#X obj -232 -6 brnbng_bag;
#N canvas 964 0 370 223 pacther 0;
#X msg 14 94 clear;
#N canvas 0 0 450 300 mute 0;
#X obj 193 91 inlet;
#X obj 125 230 outlet;
#X obj 125 133 delay 1000;
#X msg 125 112 bang;
#X obj 108 159 t b;
#X obj 193 112 t b;
#X obj 156 159 delay 500;
#X obj 125 209 spigot;
#X msg 108 182 1;
#X msg 156 180 0;
#X obj 125 91 loadbang;
#X msg 193 133 0;
#X connect 0 0 5 0;
#X connect 2 0 4 0;
#X connect 2 0 6 0;
#X connect 3 0 2 0;
#X connect 4 0 3 0;
#X connect 4 0 8 0;
#X connect 5 0 11 0;
#X connect 6 0 9 0;
#X connect 7 0 1 0;
#X connect 8 0 7 1;
#X connect 9 0 7 0;
#X connect 10 0 3 0;
#X connect 11 0 7 1;
#X restore 14 50 pd mute;
#X obj 14 72 t b;
#X obj 63 160 s pd-brnbng_bag.pd;
#X obj 63 72 t f f;
#X obj 90 94 * 20;
#X obj 63 -37 r rOSC;
#X obj 63 -15 routeOSC /objects;
#X obj 63 116 pack f f f f;
#X obj 63 50 unpack f f f;
#X obj 63 7 symbol;
#X obj 63 28 s2l;
#X msg 63 138 obj 2 \$2 brnbng_point \$1 \$3 \$4;
#X connect 0 0 3 0;
#X connect 1 0 2 0;
#X connect 2 0 0 0;
#X connect 4 0 8 0;
#X connect 4 1 5 0;
#X connect 5 0 8 1;
#X connect 6 0 1 0;
#X connect 6 0 7 0;
#X connect 7 0 10 0;
#X connect 8 0 12 0;
#X connect 9 0 4 0;
#X connect 9 1 8 2;
#X connect 9 2 8 3;
#X connect 10 0 11 0;
#X connect 11 0 9 0;
#X connect 12 0 3 0;
#X restore -232 15 pd pacther;
#X obj -231 -122 import mrpeach;
#X obj -231 -102 udpreceive 9998;
#X obj -231 -81 unpackOSC;
#X obj -231 -60 s rOSC;
#X obj -120 -122 r rOSC;
#X obj -120 -78 symbol;
#X obj -120 -57 s2l;
#X obj -120 -100 routeOSC /persona;
#X obj -120 -36 s prsn;
#N canvas 631 481 450 300 parts 0;
#X obj 186 -80 t b;
#X obj 196 -15 pack f f;
#X obj 241 -36 * 20;
#X obj 214 -57 t f f;
#X msg 153 7 clear;
#X obj 214 -80 int;
#X obj 213 -118 bng 15 250 50 0 empty empty empty 17 7 0 10 -262144
-1 -1;
#X obj 242 -78 + 1;
#X msg 244 -118 0;
#X msg 196 7 obj 5 \$2 osc~ \$1;
#X obj 196 30 send pd-brnbng_osc.pd;
#X obj 275 -36 expr;
#X connect 0 0 5 0;
#X connect 1 0 9 0;
#X connect 2 0 1 1;
#X connect 3 0 1 0;
#X connect 3 1 2 0;
#X connect 4 0 10 0;
#X connect 5 0 3 0;
#X connect 5 0 7 0;
#X connect 6 0 5 0;
#X connect 7 0 5 1;
#X connect 8 0 5 0;
#X connect 9 0 10 0;
#X restore -232 36 pd parts;
#X connect 1 0 0 0;
#X connect 2 0 0 1;
#X connect 3 0 0 2;
#X connect 4 0 0 3;
#X connect 8 0 9 0;
#X connect 9 0 10 0;
#X connect 11 0 14 0;
#X connect 12 0 13 0;
#X connect 13 0 15 0;
#X connect 14 0 12 0;
