#N canvas 37 283 939 683 10;
#X floatatom 457 200 5 0 0 0 - - -;
#X obj 457 125 r plr\$1_obj\$2X;
#X obj 550 125 r plr\$1_obj\$2Y;
#X floatatom 492 200 5 0 0 0 - - -;
#X obj 384 376 earplug~ 0 0;
#X obj 384 426 throw~ player\$1L;
#X obj 486 426 throw~ player\$1R;
#X obj 384 294 noise~;
#X obj 383 323 *~ 0.5;
#X obj 457 224 atan2;
#X obj 457 246 * 100;
#X floatatom 457 268 5 0 0 0 - - -;
#X msg 453 346 50;
#X floatatom 267 284 5 0 0 0 - - -;
#X obj 465 150 outlet;
#X obj 558 150 outlet;
#X obj 267 224 sqrt;
#X obj 256 161 pow 2;
#X obj 293 161 pow 2;
#X obj 267 204 +;
#X obj 267 244 * -1;
#X obj 267 264 + 1;
#X obj 729 555 +;
#X obj 728 576 / 2;
#X obj 741 509 * -1;
#X obj 743 529 + 1;
#X obj 703 511 * -1;
#X obj 705 531 + 1;
#X obj 721 428 moses 0;
#X obj 710 453 * -1;
#X obj 774 430 moses 0;
#X obj 760 462 * -1;
#X obj 383 350 lop~;
#X obj 300 333 * 4000;
#X obj 364 219 - 0.3;
#X floatatom 529 314 5 0 0 0 - - -;
#X obj 415 226 r mute;
#X connect 0 0 9 0;
#X connect 1 0 0 0;
#X connect 1 0 14 0;
#X connect 1 0 17 0;
#X connect 2 0 3 0;
#X connect 2 0 15 0;
#X connect 2 0 18 0;
#X connect 3 0 9 1;
#X connect 4 0 5 0;
#X connect 4 1 6 0;
#X connect 7 0 8 0;
#X connect 8 0 32 0;
#X connect 9 0 10 0;
#X connect 10 0 11 0;
#X connect 11 0 4 1;
#X connect 12 0 4 2;
#X connect 13 0 33 0;
#X connect 13 0 34 0;
#X connect 16 0 20 0;
#X connect 17 0 19 1;
#X connect 18 0 19 0;
#X connect 19 0 16 0;
#X connect 20 0 21 0;
#X connect 21 0 13 0;
#X connect 22 0 23 0;
#X connect 24 0 25 0;
#X connect 25 0 22 1;
#X connect 26 0 27 0;
#X connect 27 0 22 0;
#X connect 28 0 29 0;
#X connect 28 1 26 0;
#X connect 29 0 26 0;
#X connect 30 0 31 0;
#X connect 30 1 24 0;
#X connect 31 0 24 0;
#X connect 32 0 4 0;
#X connect 33 0 32 1;
#X connect 34 0 8 1;
#X connect 34 0 35 0;
#X connect 36 0 8 1;
