#N canvas 388 143 698 403 10;
#X floatatom 254 178 5 0 0 0 - - -;
#X obj 231 5 r plr\$1_obj\$2X;
#X obj 324 5 r plr\$1_obj\$2Y;
#X floatatom 372 157 5 0 0 0 - - -;
#X obj 180 263 earplug~ 0 0;
#X obj 180 287 throw~ player\$1L;
#X obj 251 308 throw~ player\$1R;
#X obj 185 203 noise~;
#X obj 178 232 *~ 0.5;
#X obj 325 219 atan2;
#X obj 323 241 * 100;
#X floatatom 337 277 5 0 0 0 - - -;
#X msg 249 226 50;
#X obj 109 166 +;
#X floatatom 110 214 5 0 0 0 - - -;
#X obj 108 187 / 2;
#X obj 121 120 * -1;
#X obj 123 140 + 1;
#X obj 83 122 * -1;
#X obj 85 142 + 1;
#X obj 101 39 moses 0;
#X obj 90 64 * -1;
#X obj 154 41 moses 0;
#X obj 140 73 * -1;
#X obj 240 30 outlet;
#X obj 348 33 outlet;
#X connect 0 0 9 0;
#X connect 1 0 0 0;
#X connect 1 0 24 0;
#X connect 2 0 3 0;
#X connect 2 0 25 0;
#X connect 3 0 9 1;
#X connect 4 0 5 0;
#X connect 4 1 6 0;
#X connect 7 0 8 0;
#X connect 8 0 4 0;
#X connect 9 0 10 0;
#X connect 10 0 11 0;
#X connect 11 0 4 1;
#X connect 12 0 4 2;
#X connect 13 0 15 0;
#X connect 14 0 8 1;
#X connect 15 0 14 0;
#X connect 16 0 17 0;
#X connect 17 0 13 1;
#X connect 18 0 19 0;
#X connect 19 0 13 0;
#X connect 20 0 21 0;
#X connect 20 1 18 0;
#X connect 21 0 18 0;
#X connect 22 0 23 0;
#X connect 22 1 16 0;
#X connect 23 0 16 0;
