#N canvas 0 0 662 584 10;
#X obj -40 160 sel 0 1;
#X msg -40 203 close;
#X obj 190 286 print;
#X obj -36 133 tgl 15 0 empty empty empty 17 7 0 10 -262144 -1 -1 0
1;
#X obj 42 280 comport 9600;
#X obj 66 491 tof/to_ascii_code 13;
#X obj 79 436 key;
#X floatatom 74 518 5 0 0 0 - - -;
#X floatatom 95 461 5 0 0 0 - - -;
#X obj 1165 413 pack f f f f f f f f f;
#X obj 1138 361 moses 32716;
#X obj 1138 338 int;
#X obj 1168 338 moses 65535;
#X obj 1168 315 int;
#X obj 1197 315 moses 65535;
#X obj 1197 292 int;
#X obj 1226 292 moses 65535;
#X obj 1226 269 int;
#X obj 1254 269 moses 65535;
#X obj 1254 246 int;
#X obj 1281 247 moses 65535;
#X obj 1281 224 int;
#X obj 1310 224 moses 65535;
#X obj 1310 201 int;
#X obj 1337 201 moses 65535;
#X obj 1337 178 int;
#X obj 1366 178 moses 65535;
#X obj 1366 155 int;
#X obj 1138 138 t b b b b b b b b b;
#X obj 1183 18 vsl 30 100 0 62535 0 0 empty empty empty 0 -9 0 10 -262144
-1 -1 0 1;
#X obj 1216 18 vsl 30 100 0 62535 0 0 empty empty empty 0 -9 0 10 -262144
-1 -1 0 1;
#X obj 1249 18 vsl 30 100 0 62535 0 0 empty empty empty 0 -9 0 10 -262144
-1 -1 0 1;
#X obj 1282 18 vsl 30 100 0 62535 0 0 empty empty empty 0 -9 0 10 -262144
-1 -1 0 1;
#X obj 1315 18 vsl 30 100 0 62535 0 0 empty empty empty 0 -9 0 10 -262144
-1 -1 0 1;
#X obj 1348 18 vsl 30 100 0 62535 0 0 empty empty empty 0 -9 0 10 -262144
-1 -1 0 1;
#X obj 1381 18 vsl 30 100 0 62535 0 0 empty empty empty 0 -9 0 10 -262144
-1 -1 0 1;
#X obj 1414 18 vsl 30 100 0 62535 0 0 empty empty empty 0 -9 0 10 -262144
-1 -1 0 1;
#X obj 1475 413 pack f f f f f f f f f;
#X obj 1475 357 moses 32716;
#X obj 1475 334 int;
#X obj 1505 334 moses 65535;
#X obj 1505 311 int;
#X obj 1534 311 moses 65535;
#X obj 1534 288 int;
#X obj 1563 288 moses 65535;
#X obj 1563 265 int;
#X obj 1591 265 moses 65535;
#X obj 1591 242 int;
#X obj 1618 243 moses 65535;
#X obj 1618 220 int;
#X obj 1647 220 moses 65535;
#X obj 1647 197 int;
#X obj 1674 197 moses 65535;
#X obj 1674 174 int;
#X obj 1703 174 moses 65535;
#X obj 1703 151 int;
#X obj 1475 134 t b b b b b b b b b;
#X obj 1520 14 vsl 30 100 0 62535 0 0 empty empty empty 0 -9 0 10 -262144
-1 -1 0 1;
#X obj 1553 14 vsl 30 100 0 62535 0 0 empty empty empty 0 -9 0 10 -262144
-1 -1 0 1;
#X obj 1586 14 vsl 30 100 0 62535 0 0 empty empty empty 0 -9 0 10 -262144
-1 -1 0 1;
#X obj 1619 14 vsl 30 100 0 62535 0 0 empty empty empty 0 -9 0 10 -262144
-1 -1 0 1;
#X obj 1652 14 vsl 30 100 0 62535 0 0 empty empty empty 0 -9 0 10 -262144
-1 -1 0 1;
#X obj 1685 14 vsl 30 100 0 62535 0 0 empty empty empty 0 -9 0 10 -262144
-1 -1 0 1;
#X obj 1718 14 vsl 30 100 0 62535 0 0 empty empty empty 0 -9 0 10 -262144
-1 -1 0 1;
#X obj 1751 14 vsl 30 100 0 62535 0 0 empty empty empty 0 -9 0 10 -262144
-1 -1 0 1;
#X obj 1058 36 bng 15 250 50 0 empty empty empty 17 7 0 10 -262144
-1 -1;
#X msg 1400 340 555;
#X obj 1058 78 t b b;
#X msg 1138 295 111;
#X msg 1475 274 102;
#X msg -21 182 devicename /dev/ttyUSB0;
#X obj 43 242 tof/to_ascii_code;
#X msg 78 39 a 45 46 47 48;
#X msg 103 105 a 145 146 147 148;
#X obj 165 211 t a;
#X obj 273 131 int;
#X obj 303 132 int;
#X obj 329 132 int;
#X obj 359 133 int;
#X obj 288 72 t b b b b;
#X obj 298 11 hsl 128 15 0 127 0 0 empty empty empty -2 -8 0 10 -262144
-1 -1 6100 1;
#X obj 442 8 hsl 128 15 0 127 0 0 empty empty empty -2 -8 0 10 -262144
-1 -1 11900 1;
#X obj 273 167 pack f f f f;
#X obj 273 194 t a b;
#X msg 312 223 a;
#X obj 273 249 prepend;
#X obj 399 319 / 256;
#X obj 446 319 % 256;
#X floatatom 406 266 5 0 0 0 - - -;
#X obj 397 344 sel 255;
#X msg 394 372 254;
#X connect 0 0 1 0;
#X connect 0 1 70 0;
#X connect 1 0 4 0;
#X connect 3 0 0 0;
#X connect 5 0 7 0;
#X connect 6 0 8 0;
#X connect 10 0 9 0;
#X connect 11 0 10 0;
#X connect 12 0 9 1;
#X connect 13 0 12 0;
#X connect 14 0 9 2;
#X connect 15 0 14 0;
#X connect 16 0 9 3;
#X connect 17 0 16 0;
#X connect 18 0 9 4;
#X connect 19 0 18 0;
#X connect 20 0 9 5;
#X connect 21 0 20 0;
#X connect 22 0 9 6;
#X connect 23 0 22 0;
#X connect 24 0 9 7;
#X connect 25 0 24 0;
#X connect 26 0 9 8;
#X connect 27 0 26 0;
#X connect 28 0 68 0;
#X connect 28 1 13 0;
#X connect 28 2 15 0;
#X connect 28 3 17 0;
#X connect 28 4 19 0;
#X connect 28 5 21 0;
#X connect 28 6 23 0;
#X connect 28 7 25 0;
#X connect 28 8 27 0;
#X connect 29 0 13 1;
#X connect 30 0 15 1;
#X connect 31 0 17 1;
#X connect 32 0 19 1;
#X connect 33 0 21 1;
#X connect 34 0 23 1;
#X connect 35 0 25 1;
#X connect 36 0 27 1;
#X connect 38 0 37 0;
#X connect 39 0 38 0;
#X connect 40 0 37 1;
#X connect 41 0 40 0;
#X connect 42 0 37 2;
#X connect 43 0 42 0;
#X connect 44 0 37 3;
#X connect 45 0 44 0;
#X connect 46 0 37 4;
#X connect 47 0 46 0;
#X connect 48 0 37 5;
#X connect 49 0 48 0;
#X connect 50 0 37 6;
#X connect 51 0 50 0;
#X connect 52 0 37 7;
#X connect 53 0 52 0;
#X connect 54 0 37 8;
#X connect 55 0 54 0;
#X connect 56 0 69 0;
#X connect 56 1 41 0;
#X connect 56 2 43 0;
#X connect 56 3 45 0;
#X connect 56 4 47 0;
#X connect 56 5 49 0;
#X connect 56 6 51 0;
#X connect 56 7 53 0;
#X connect 56 8 55 0;
#X connect 57 0 41 1;
#X connect 58 0 43 1;
#X connect 59 0 45 1;
#X connect 60 0 47 1;
#X connect 61 0 49 1;
#X connect 62 0 51 1;
#X connect 63 0 53 1;
#X connect 64 0 55 1;
#X connect 65 0 67 0;
#X connect 66 0 27 1;
#X connect 66 0 55 1;
#X connect 67 0 28 0;
#X connect 67 1 56 0;
#X connect 68 0 11 0;
#X connect 69 0 39 0;
#X connect 70 0 4 0;
#X connect 71 0 4 0;
#X connect 74 0 71 0;
#X connect 74 0 2 0;
#X connect 75 0 82 0;
#X connect 76 0 82 1;
#X connect 77 0 82 2;
#X connect 78 0 82 3;
#X connect 79 0 75 0;
#X connect 79 1 76 0;
#X connect 79 2 77 0;
#X connect 79 3 78 0;
#X connect 80 0 75 1;
#X connect 80 0 76 1;
#X connect 80 0 79 0;
#X connect 81 0 77 1;
#X connect 81 0 78 1;
#X connect 81 0 79 0;
#X connect 82 0 83 0;
#X connect 83 0 85 0;
#X connect 83 1 84 0;
#X connect 84 0 85 1;
#X connect 85 0 74 0;
#X connect 88 0 86 0;
#X connect 88 0 87 0;
#X connect 89 0 90 0;
