#N canvas 239 31 1089 648 10;
#X declare -lib mrpeach;
#X obj -342 117 dac~ 1 2 3 4;
#X obj -342 40 catch~ player0L;
#X obj -320 59 catch~ player0R;
#X obj -296 78 catch~ player1L;
#X obj -273 97 catch~ player1R;
#X obj -339 149 brnbng_point 0 1;
#X obj -327 342 brnbng_coms;
#X obj -70 0 t b;
#X obj -60 65 pack f f;
#X obj -15 44 * 20;
#X obj -42 23 t f f;
#X msg -103 87 clear;
#X obj -42 0 int;
#X obj -43 -38 bng 15 250 50 0 empty empty empty 17 7 0 10 -262144
-1 -1;
#X obj -14 2 + 1;
#X msg -12 -38 0;
#X msg -60 87 obj 5 \$2 osc~ \$1;
#X obj -60 110 send pd-brnbng_osc.pd;
#X obj -352 327 tgl 15 0 empty empty empty 17 7 0 10 -262144 -1 -1
0 1;
#X text -220 344 16514;
#X floatatom -334 171 5 0 0 0 - - -;
#X floatatom -241 171 5 0 0 0 - - -;
#X floatatom -335 214 5 0 0 0 - - -;
#X floatatom -242 214 5 0 0 0 - - -;
#X obj -340 192 brnbng_point 1 1;
#X floatatom -335 257 5 0 0 0 - - -;
#X floatatom -242 257 5 0 0 0 - - -;
#X floatatom -333 300 5 0 0 0 - - -;
#X floatatom -240 300 5 0 0 0 - - -;
#X obj -340 235 brnbng_point 0 2;
#X obj -338 278 brnbng_point 1 2;
#X obj -346 6 brnbng_osc;
#X obj -57 170 unpack f f f f;
#X text 49 169 x y o p;
#X obj -7 202 spigot;
#X obj -57 202 spigot;
#X obj 57 202 spigot;
#X floatatom 57 224 5 0 0 0 - - -;
#X obj 27 311 +;
#X obj 57 247 sel 0;
#X obj 57 267 t b b;
#X msg 57 294 0;
#X obj 0 311 f;
#X obj 4 341 f;
#X obj -30 311 +;
#X obj -57 311 f;
#X obj -53 341 f;
#X obj -53 361 / 4;
#X floatatom 5 384 5 0 0 0 - - -;
#X floatatom -52 384 5 0 0 0 - - -;
#X obj 7 362 / 4;
#X obj 36 405 spigot;
#X obj -42 408 spigot;
#X obj 75 359 tgl 15 0 empty empty empty 17 7 0 10 -262144 -1 -1 0
1;
#X obj 52 473 *;
#X obj 79 473 *;
#X obj 182 345 hsl 50 30 0 1 0 0 empty empty empty -2 -8 0 10 -262144
-1 -1 0 1;
#X obj 120 432 * -1;
#X obj 90 520 * 2000;
#X obj 13 520 * 2000;
#X obj 90 541 speedlim 50;
#X obj 14 542 speedlim 50;
#X floatatom 162 493 5 0 0 0 - - -;
#X msg 177 453 5000;
#X obj -7 223 moses 0;
#X obj 36 432 sqrt;
#X obj -42 432 sqrt;
#X floatatom -42 455 5 0 0 0 - - -;
#X obj 120 456 + 1;
#X obj -41 476 + 0.5;
#X connect 1 0 0 0;
#X connect 2 0 0 1;
#X connect 3 0 0 2;
#X connect 4 0 0 3;
#X connect 5 0 20 0;
#X connect 5 1 21 0;
#X connect 7 0 12 0;
#X connect 8 0 16 0;
#X connect 9 0 8 1;
#X connect 10 0 8 0;
#X connect 10 1 9 0;
#X connect 11 0 17 0;
#X connect 12 0 10 0;
#X connect 12 0 14 0;
#X connect 13 0 12 0;
#X connect 14 0 12 1;
#X connect 15 0 12 0;
#X connect 16 0 17 0;
#X connect 18 0 6 0;
#X connect 24 0 22 0;
#X connect 24 1 23 0;
#X connect 29 0 25 0;
#X connect 29 1 26 0;
#X connect 30 0 27 0;
#X connect 30 1 28 0;
#X connect 32 0 35 0;
#X connect 32 1 34 0;
#X connect 32 2 36 0;
#X connect 32 3 35 1;
#X connect 32 3 34 1;
#X connect 32 3 36 1;
#X connect 34 0 64 0;
#X connect 35 0 45 0;
#X connect 36 0 37 0;
#X connect 37 0 39 0;
#X connect 38 0 42 1;
#X connect 39 0 40 0;
#X connect 40 0 41 0;
#X connect 40 1 43 0;
#X connect 40 1 46 0;
#X connect 41 0 42 0;
#X connect 41 0 45 0;
#X connect 42 0 38 0;
#X connect 42 0 43 1;
#X connect 43 0 50 0;
#X connect 44 0 45 1;
#X connect 45 0 44 0;
#X connect 45 0 46 1;
#X connect 46 0 47 0;
#X connect 47 0 49 0;
#X connect 48 0 51 0;
#X connect 49 0 52 0;
#X connect 50 0 48 0;
#X connect 51 0 65 0;
#X connect 52 0 66 0;
#X connect 53 0 51 1;
#X connect 53 0 52 1;
#X connect 54 0 59 0;
#X connect 55 0 58 0;
#X connect 56 0 54 1;
#X connect 56 0 57 0;
#X connect 57 0 68 0;
#X connect 58 0 60 0;
#X connect 59 0 61 0;
#X connect 62 0 58 1;
#X connect 62 0 59 1;
#X connect 63 0 62 0;
#X connect 64 1 42 0;
#X connect 65 0 55 0;
#X connect 65 0 54 0;
#X connect 66 0 67 0;
#X connect 67 0 69 0;
#X connect 68 0 55 1;
