#N canvas 528 141 180 277 10;
#X declare -lib mrpeach;
#X obj 5 5 import mrpeach;
#X obj 5 46 unpackOSC;
#X obj 5 25 udpreceive 9998;
#X obj 5 67 routeOSC /object;
#X obj 5 109 symbol2list;
#X obj 5 88 symbol;
#X obj 5 230 s;
#X obj 47 162 prepend;
#X obj 5 133 unpack f f f f;
#X msg 20 206 symbol plr\$1_obj\$2X;
#X obj 32 254 s;
#X msg 47 230 symbol plr\$1_obj\$2Y;
#X text 97 132 x y o p;
#X connect 1 0 3 0;
#X connect 2 0 1 0;
#X connect 3 0 5 0;
#X connect 4 0 8 0;
#X connect 5 0 4 0;
#X connect 7 0 9 0;
#X connect 7 0 11 0;
#X connect 8 0 6 0;
#X connect 8 1 10 0;
#X connect 8 2 7 0;
#X connect 8 3 7 1;
#X connect 9 0 6 1;
#X connect 11 0 10 1;
