#N canvas 325 44 1030 580 10;
#X obj -40 160 sel 0 1;
#X obj 42 242 tof/to_ascii_code 13;
#X msg -40 203 close;
#X obj 92 339 print;
#X obj -36 133 tgl 15 0 empty empty empty 17 7 0 10 -262144 -1 -1 1
1;
#X obj 42 280 comport 9600;
#X obj 333 403 pack f f f f f f f f f;
#X obj 306 351 moses 32716;
#X obj 306 328 int;
#X obj 336 328 moses 65535;
#X obj 336 305 int;
#X obj 365 305 moses 65535;
#X obj 365 282 int;
#X obj 394 282 moses 65535;
#X obj 394 259 int;
#X obj 422 259 moses 65535;
#X obj 422 236 int;
#X obj 449 237 moses 65535;
#X obj 449 214 int;
#X obj 478 214 moses 65535;
#X obj 478 191 int;
#X obj 505 191 moses 65535;
#X obj 505 168 int;
#X obj 403 507 list;
#X obj 351 8 vsl 30 100 0 62535 0 0 empty empty empty 0 -9 0 10 -262144
-1 -1 4800 1;
#X obj 384 8 vsl 30 100 0 62535 0 0 empty empty empty 0 -9 0 10 -262144
-1 -1 3600 1;
#X obj 417 8 vsl 30 100 0 62535 0 0 empty empty empty 0 -9 0 10 -262144
-1 -1 6000 1;
#X obj 450 8 vsl 30 100 0 62535 0 0 empty empty empty 0 -9 0 10 -262144
-1 -1 2200 1;
#X obj 483 8 vsl 30 100 0 62535 0 0 empty empty empty 0 -9 0 10 -262144
-1 -1 5800 1;
#X obj 516 8 vsl 30 100 0 62535 0 0 empty empty empty 0 -9 0 10 -262144
-1 -1 2800 1;
#X obj 549 8 vsl 30 100 0 62535 0 0 empty empty empty 0 -9 0 10 -262144
-1 -1 5100 1;
#X obj 643 403 pack f f f f f f f f f;
#X obj 643 347 moses 32716;
#X obj 643 324 int;
#X obj 673 324 moses 65535;
#X obj 673 301 int;
#X obj 702 301 moses 65535;
#X obj 702 278 int;
#X obj 731 278 moses 65535;
#X obj 731 255 int;
#X obj 759 255 moses 65535;
#X obj 759 232 int;
#X obj 786 233 moses 65535;
#X obj 786 210 int;
#X obj 815 210 moses 65535;
#X obj 815 187 int;
#X obj 842 187 moses 65535;
#X obj 842 164 int;
#X obj 688 4 vsl 30 100 0 62535 0 0 empty empty empty 0 -9 0 10 -262144
-1 -1 1400 1;
#X obj 721 4 vsl 30 100 0 62535 0 0 empty empty empty 0 -9 0 10 -262144
-1 -1 4200 1;
#X obj 754 4 vsl 30 100 0 62535 0 0 empty empty empty 0 -9 0 10 -262144
-1 -1 6000 1;
#X obj 787 4 vsl 30 100 0 62535 0 0 empty empty empty 0 -9 0 10 -262144
-1 -1 6600 1;
#X obj 820 4 vsl 30 100 0 62535 0 0 empty empty empty 0 -9 0 10 -262144
-1 -1 3400 1;
#X obj 853 4 vsl 30 100 0 62535 0 0 empty empty empty 0 -9 0 10 -262144
-1 -1 1500 1;
#X obj 886 4 vsl 30 100 0 62535 0 0 empty empty empty 0 -9 0 10 -262144
-1 -1 2400 1;
#X obj 226 26 bng 15 250 50 0 empty empty empty 17 7 0 10 -262144 -1
-1;
#X msg 568 330 555;
#X obj 226 68 t b b;
#X obj 66 491 tof/to_ascii_code 13;
#X obj 79 436 key;
#X floatatom 74 518 5 0 0 0 - - -;
#X floatatom 95 461 5 0 0 0 - - -;
#X msg 306 285 111;
#X msg 643 264 102;
#X obj 1165 413 pack f f f f f f f f f;
#X obj 1138 361 moses 32716;
#X obj 1138 338 int;
#X obj 1168 338 moses 65535;
#X obj 1168 315 int;
#X obj 1197 315 moses 65535;
#X obj 1197 292 int;
#X obj 1226 292 moses 65535;
#X obj 1226 269 int;
#X obj 1254 269 moses 65535;
#X obj 1254 246 int;
#X obj 1281 247 moses 65535;
#X obj 1281 224 int;
#X obj 1310 224 moses 65535;
#X obj 1310 201 int;
#X obj 1337 201 moses 65535;
#X obj 1337 178 int;
#X obj 1366 178 moses 65535;
#X obj 1366 155 int;
#X obj 1138 138 t b b b b b b b b b;
#X obj 1183 18 vsl 30 100 0 62535 0 0 empty empty empty 0 -9 0 10 -262144
-1 -1 0 1;
#X obj 1216 18 vsl 30 100 0 62535 0 0 empty empty empty 0 -9 0 10 -262144
-1 -1 0 1;
#X obj 1249 18 vsl 30 100 0 62535 0 0 empty empty empty 0 -9 0 10 -262144
-1 -1 0 1;
#X obj 1282 18 vsl 30 100 0 62535 0 0 empty empty empty 0 -9 0 10 -262144
-1 -1 0 1;
#X obj 1315 18 vsl 30 100 0 62535 0 0 empty empty empty 0 -9 0 10 -262144
-1 -1 0 1;
#X obj 1348 18 vsl 30 100 0 62535 0 0 empty empty empty 0 -9 0 10 -262144
-1 -1 0 1;
#X obj 1381 18 vsl 30 100 0 62535 0 0 empty empty empty 0 -9 0 10 -262144
-1 -1 0 1;
#X obj 1414 18 vsl 30 100 0 62535 0 0 empty empty empty 0 -9 0 10 -262144
-1 -1 0 1;
#X obj 1475 413 pack f f f f f f f f f;
#X obj 1475 357 moses 32716;
#X obj 1475 334 int;
#X obj 1505 334 moses 65535;
#X obj 1505 311 int;
#X obj 1534 311 moses 65535;
#X obj 1534 288 int;
#X obj 1563 288 moses 65535;
#X obj 1563 265 int;
#X obj 1591 265 moses 65535;
#X obj 1591 242 int;
#X obj 1618 243 moses 65535;
#X obj 1618 220 int;
#X obj 1647 220 moses 65535;
#X obj 1647 197 int;
#X obj 1674 197 moses 65535;
#X obj 1674 174 int;
#X obj 1703 174 moses 65535;
#X obj 1703 151 int;
#X obj 1475 134 t b b b b b b b b b;
#X obj 1520 14 vsl 30 100 0 62535 0 0 empty empty empty 0 -9 0 10 -262144
-1 -1 0 1;
#X obj 1553 14 vsl 30 100 0 62535 0 0 empty empty empty 0 -9 0 10 -262144
-1 -1 0 1;
#X obj 1586 14 vsl 30 100 0 62535 0 0 empty empty empty 0 -9 0 10 -262144
-1 -1 0 1;
#X obj 1619 14 vsl 30 100 0 62535 0 0 empty empty empty 0 -9 0 10 -262144
-1 -1 0 1;
#X obj 1652 14 vsl 30 100 0 62535 0 0 empty empty empty 0 -9 0 10 -262144
-1 -1 0 1;
#X obj 1685 14 vsl 30 100 0 62535 0 0 empty empty empty 0 -9 0 10 -262144
-1 -1 0 1;
#X obj 1718 14 vsl 30 100 0 62535 0 0 empty empty empty 0 -9 0 10 -262144
-1 -1 0 1;
#X obj 1751 14 vsl 30 100 0 62535 0 0 empty empty empty 0 -9 0 10 -262144
-1 -1 0 1;
#X obj 1058 36 bng 15 250 50 0 empty empty empty 17 7 0 10 -262144
-1 -1;
#X msg 1400 340 555;
#X obj 1058 78 t b b;
#X msg 1138 295 111;
#X msg 1475 274 102;
#X obj 306 128 t b b b b b b b b;
#X obj 643 124 t b b b b b b b b;
#X obj 336 426 t l b;
#X obj 656 435 t l b;
#X msg 404 439 list o;
#X msg 722 448 list n;
#X obj 399 481 list;
#X obj 661 486 list;
#X obj 447 532 print before;
#X msg -21 182 devicename /dev/ttyUSB0;
#X msg 145 185 111;
#X msg 218 178 255;
#X msg 186 179 1;
#X connect 0 0 2 0;
#X connect 0 1 134 0;
#X connect 1 0 5 0;
#X connect 2 0 5 0;
#X connect 4 0 0 0;
#X connect 5 0 3 0;
#X connect 6 0 127 0;
#X connect 7 0 6 0;
#X connect 8 0 7 0;
#X connect 9 0 6 1;
#X connect 10 0 9 0;
#X connect 11 0 6 2;
#X connect 12 0 11 0;
#X connect 13 0 6 3;
#X connect 14 0 13 0;
#X connect 15 0 6 4;
#X connect 16 0 15 0;
#X connect 17 0 6 5;
#X connect 18 0 17 0;
#X connect 19 0 6 6;
#X connect 20 0 19 0;
#X connect 21 0 6 7;
#X connect 22 0 21 0;
#X connect 24 0 10 1;
#X connect 25 0 12 1;
#X connect 26 0 14 1;
#X connect 27 0 16 1;
#X connect 28 0 18 1;
#X connect 29 0 20 1;
#X connect 30 0 22 1;
#X connect 31 0 128 0;
#X connect 32 0 31 0;
#X connect 33 0 32 0;
#X connect 34 0 31 1;
#X connect 35 0 34 0;
#X connect 36 0 31 2;
#X connect 37 0 36 0;
#X connect 38 0 31 3;
#X connect 39 0 38 0;
#X connect 40 0 31 4;
#X connect 41 0 40 0;
#X connect 42 0 31 5;
#X connect 43 0 42 0;
#X connect 44 0 31 6;
#X connect 45 0 44 0;
#X connect 46 0 31 7;
#X connect 47 0 46 0;
#X connect 48 0 35 1;
#X connect 49 0 37 1;
#X connect 50 0 39 1;
#X connect 51 0 41 1;
#X connect 52 0 43 1;
#X connect 53 0 45 1;
#X connect 54 0 47 1;
#X connect 55 0 57 0;
#X connect 56 0 22 1;
#X connect 56 0 47 1;
#X connect 57 0 125 0;
#X connect 57 1 126 0;
#X connect 58 0 60 0;
#X connect 59 0 61 0;
#X connect 62 0 8 0;
#X connect 63 0 33 0;
#X connect 65 0 64 0;
#X connect 66 0 65 0;
#X connect 67 0 64 1;
#X connect 68 0 67 0;
#X connect 69 0 64 2;
#X connect 70 0 69 0;
#X connect 71 0 64 3;
#X connect 72 0 71 0;
#X connect 73 0 64 4;
#X connect 74 0 73 0;
#X connect 75 0 64 5;
#X connect 76 0 75 0;
#X connect 77 0 64 6;
#X connect 78 0 77 0;
#X connect 79 0 64 7;
#X connect 80 0 79 0;
#X connect 81 0 64 8;
#X connect 82 0 81 0;
#X connect 83 0 123 0;
#X connect 83 1 68 0;
#X connect 83 2 70 0;
#X connect 83 3 72 0;
#X connect 83 4 74 0;
#X connect 83 5 76 0;
#X connect 83 6 78 0;
#X connect 83 7 80 0;
#X connect 83 8 82 0;
#X connect 84 0 68 1;
#X connect 85 0 70 1;
#X connect 86 0 72 1;
#X connect 87 0 74 1;
#X connect 88 0 76 1;
#X connect 89 0 78 1;
#X connect 90 0 80 1;
#X connect 91 0 82 1;
#X connect 93 0 92 0;
#X connect 94 0 93 0;
#X connect 95 0 92 1;
#X connect 96 0 95 0;
#X connect 97 0 92 2;
#X connect 98 0 97 0;
#X connect 99 0 92 3;
#X connect 100 0 99 0;
#X connect 101 0 92 4;
#X connect 102 0 101 0;
#X connect 103 0 92 5;
#X connect 104 0 103 0;
#X connect 105 0 92 6;
#X connect 106 0 105 0;
#X connect 107 0 92 7;
#X connect 108 0 107 0;
#X connect 109 0 92 8;
#X connect 110 0 109 0;
#X connect 111 0 124 0;
#X connect 111 1 96 0;
#X connect 111 2 98 0;
#X connect 111 3 100 0;
#X connect 111 4 102 0;
#X connect 111 5 104 0;
#X connect 111 6 106 0;
#X connect 111 7 108 0;
#X connect 111 8 110 0;
#X connect 112 0 96 1;
#X connect 113 0 98 1;
#X connect 114 0 100 1;
#X connect 115 0 102 1;
#X connect 116 0 104 1;
#X connect 117 0 106 1;
#X connect 118 0 108 1;
#X connect 119 0 110 1;
#X connect 120 0 122 0;
#X connect 121 0 82 1;
#X connect 121 0 110 1;
#X connect 122 0 83 0;
#X connect 122 1 111 0;
#X connect 123 0 66 0;
#X connect 124 0 94 0;
#X connect 125 0 62 0;
#X connect 125 1 10 0;
#X connect 125 2 12 0;
#X connect 125 3 14 0;
#X connect 125 4 16 0;
#X connect 125 5 18 0;
#X connect 125 6 20 0;
#X connect 125 7 22 0;
#X connect 126 0 63 0;
#X connect 126 1 35 0;
#X connect 126 2 37 0;
#X connect 126 3 39 0;
#X connect 126 4 41 0;
#X connect 126 5 43 0;
#X connect 126 6 45 0;
#X connect 126 7 47 0;
#X connect 127 0 131 1;
#X connect 127 1 129 0;
#X connect 128 0 132 1;
#X connect 128 1 130 0;
#X connect 129 0 131 0;
#X connect 130 0 132 0;
#X connect 131 0 23 0;
#X connect 132 0 23 1;
#X connect 134 0 5 0;
#X connect 135 0 1 0;
#X connect 136 0 1 0;
#X connect 137 0 1 0;
