#N canvas 565 1 790 625 10;
#X obj 179 226 earplug~ 0 0;
#X obj 215 48 hsl 200 15 0 1000 0 0 empty empty empty -2 -8 0 10 -262144
-1 -1 3700 1;
#X floatatom 213 145 5 0 0 0 - - -;
#X obj 213 166 pack 0 50;
#X obj 213 188 line 0 1;
#X obj 74 60 osc~;
#X obj 39 117 noise~;
#X obj 135 11 vsl 15 128 0 1 0 0 empty empty empty 0 -9 0 10 -262144
-1 -1 3300 1;
#X obj 39 143 *~;
#X obj 114 521 dac~;
#X obj 213 125 % 360;
#X obj 93 222 lop~;
#X obj 142 151 * 1000;
#X obj 160 189 + 500;
#X obj 439 279 earplug~ 0 0;
#X obj 475 101 hsl 200 15 0 1000 0 0 empty empty empty -2 -8 0 10 -262144
-1 -1 2100 1;
#X floatatom 473 198 5 0 0 0 - - -;
#X obj 473 219 pack 0 50;
#X obj 473 241 line 0 1;
#X obj 334 113 osc~;
#X obj 299 170 noise~;
#X obj 395 64 vsl 15 128 0 1 0 0 empty empty empty 0 -9 0 10 -262144
-1 -1 4800 1;
#X obj 299 196 *~;
#X obj 473 178 % 360;
#X obj 353 275 lop~;
#X obj 402 204 * 1000;
#X obj 420 242 + 500;
#X obj 680 348 earplug~ 0 0;
#X obj 716 170 hsl 200 15 0 1000 0 0 empty empty empty -2 -8 0 10 -262144
-1 -1 7400 1;
#X floatatom 714 267 5 0 0 0 - - -;
#X obj 714 288 pack 0 50;
#X obj 714 310 line 0 1;
#X obj 575 182 osc~;
#X obj 540 239 noise~;
#X obj 636 133 vsl 15 128 0 1 0 0 empty empty empty 0 -9 0 10 -262144
-1 -1 4900 1;
#X obj 540 265 *~;
#X obj 714 247 % 360;
#X obj 594 344 lop~;
#X obj 643 273 * 1000;
#X obj 661 311 + 500;
#X connect 0 0 9 0;
#X connect 0 1 9 1;
#X connect 1 0 10 0;
#X connect 2 0 3 0;
#X connect 3 0 4 0;
#X connect 4 0 0 1;
#X connect 6 0 8 0;
#X connect 7 0 8 1;
#X connect 7 0 12 0;
#X connect 8 0 11 0;
#X connect 10 0 2 0;
#X connect 11 0 0 0;
#X connect 12 0 13 0;
#X connect 13 0 11 1;
#X connect 14 0 9 0;
#X connect 14 1 9 1;
#X connect 15 0 23 0;
#X connect 16 0 17 0;
#X connect 17 0 18 0;
#X connect 18 0 14 1;
#X connect 20 0 22 0;
#X connect 21 0 22 1;
#X connect 21 0 25 0;
#X connect 22 0 24 0;
#X connect 23 0 16 0;
#X connect 24 0 14 0;
#X connect 25 0 26 0;
#X connect 26 0 24 1;
#X connect 27 0 9 0;
#X connect 27 1 9 1;
#X connect 28 0 36 0;
#X connect 29 0 30 0;
#X connect 30 0 31 0;
#X connect 31 0 27 1;
#X connect 33 0 35 0;
#X connect 34 0 35 1;
#X connect 34 0 38 0;
#X connect 35 0 37 0;
#X connect 36 0 29 0;
#X connect 37 0 27 0;
#X connect 38 0 39 0;
#X connect 39 0 37 1;
