#N canvas 390 254 450 300 10;
#X declare -lib mrpeach;
#X obj 5 5 import mrpeach;
#X obj 104 30 unpackOSC;
#X obj 104 6 udpreceive 9998;
#X floatatom 207 221 5 0 0 0 - - -;
#X floatatom 223 244 5 0 0 0 - - -;
#X obj 198 80 routeOSC /object;
#X obj 198 130 symbol2list;
#X obj 198 104 symbol;
#X floatatom 199 203 5 0 0 0 - - -;
#X floatatom 338 142 5 0 0 0 - - -;
#X floatatom 413 152 5 0 0 0 - - -;
#X floatatom 330 124 5 0 0 0 - - -;
#X obj 322 63 route 0 1 2 3 4 5;
#X obj 330 105 unpack f f;
#X floatatom 431 126 5 0 0 0 - - -;
#X floatatom 423 108 5 0 0 0 - - -;
#X obj 423 89 unpack f f;
#X obj 84 67 print;
#X obj 199 184 unpack f f f f;
#X floatatom 264 251 5 0 0 0 - - -;
#X connect 1 0 5 0;
#X connect 2 0 1 0;
#X connect 5 0 7 0;
#X connect 6 0 17 0;
#X connect 6 0 18 0;
#X connect 7 0 6 0;
#X connect 12 0 13 0;
#X connect 12 2 16 0;
#X connect 13 0 11 0;
#X connect 13 1 9 0;
#X connect 16 0 15 0;
#X connect 16 1 14 0;
#X connect 18 0 8 0;
#X connect 18 1 3 0;
#X connect 18 2 4 0;
#X connect 18 3 19 0;
